<?xml version="1.0" encoding="UTF-8" standalone="no"?>
<!-- Created with Inkscape (http://www.inkscape.org/) -->

<svg
   width="1920"
   height="1080"
   viewBox="0 0 508 285.75"
   version="1.1"
   id="svg1"
   xml:space="preserve"
   inkscape:export-filename="CV&amp;Publications_Icons.webp"
   inkscape:export-xdpi="96"
   inkscape:export-ydpi="96"
   inkscape:version="1.4.2 (ebf0e940d0, 2025-05-08)"
   sodipodi:docname="CV&amp;Publications_Icons.svg"
   xmlns:inkscape="http://www.inkscape.org/namespaces/inkscape"
   xmlns:sodipodi="http://sodipodi.sourceforge.net/DTD/sodipodi-0.dtd"
   xmlns="http://www.w3.org/2000/svg"
   xmlns:svg="http://www.w3.org/2000/svg"><sodipodi:namedview
     id="namedview1"
     pagecolor="#373737"
     bordercolor="#000000"
     borderopacity="0.25"
     inkscape:showpageshadow="2"
     inkscape:pageopacity="0.0"
     inkscape:pagecheckerboard="0"
     inkscape:deskcolor="#d1d1d1"
     inkscape:document-units="mm"
     inkscape:zoom="0.35767747"
     inkscape:cx="949.17916"
     inkscape:cy="518.62366"
     inkscape:window-width="2560"
     inkscape:window-height="1011"
     inkscape:window-x="0"
     inkscape:window-y="0"
     inkscape:window-maximized="1"
     inkscape:current-layer="layer1"
     inkscape:export-bgcolor="#373737ff" /><defs
     id="defs1" /><g
     inkscape:label="Layer 1"
     inkscape:groupmode="layer"
     id="layer1"><g
       id="g22"
       transform="translate(402.94111,119.4883)" /><g
       id="g26"
       transform="translate(-25.862258,63.302092)"
       style="fill:#e4b969;fill-opacity:1"><path
         fill-rule="evenodd"
         clip-rule="evenodd"
         d="m 384.28533,63.603508 h 29.89133 c 3.30168,0 5.97827,-2.676589 5.97827,-5.978266 V 27.733908 h 59.78267 c 6.60359,0 11.95653,5.353119 11.95653,11.956533 V 159.25577 c 0,6.6036 -5.35294,11.95654 -11.95653,11.95654 h -83.69574 c -6.60341,0 -11.95653,-5.35294 -11.95653,-11.95654 z m 2.04104,-11.956533 c 3.60232,-10.191929 11.6801,-18.269697 21.87203,-21.872021 v 21.872021 z"
         fill="#758ca3"
         id="path25"
         sodipodi:nodetypes="csscssssssccccc"
         style="fill:#e4b969;fill-opacity:1;stroke:none;stroke-width:5.97827;stroke-opacity:1" /><path
         fill-rule="evenodd"
         clip-rule="evenodd"
         d="m 402.10151,83.578059 c 0,-2.484465 2.01406,-4.498522 4.49853,-4.498522 2.48447,0 4.49852,2.014057 4.49852,4.498522 V 137.5604 c 0,2.48438 2.01406,4.49853 4.49853,4.49853 h 53.98234 c 2.48438,0 4.49853,2.01414 4.49853,4.49852 0,2.48439 -2.01415,4.49853 -4.49853,4.49853 h -53.98234 c -7.4534,0 -13.49558,-6.04212 -13.49558,-13.49558 z m 42.48979,41.230811 -5.92846,-3.95241 -12.38726,12.38745 c -1.7568,1.75653 -4.60508,1.75653 -6.36188,0 -1.7568,-1.75682 -1.7568,-4.60529 0,-6.36212 l 14.99497,-14.99509 c 1.51631,-1.51631 3.89213,-1.75143 5.67655,-0.56201 l 5.92846,3.9524 15.38616,-15.386347 c 1.75682,-1.756789 4.60529,-1.756789 6.36212,0 1.75652,1.756797 1.75652,4.605087 0,6.361877 l -17.99412,17.99424 c -1.5163,1.5163 -3.89212,1.75142 -5.67654,0.56201 z"
         fill="#758ca3"
         id="path1-0"
         style="fill:#373737;fill-opacity:1;stroke:none;stroke-width:2.99902;stroke-opacity:1" /></g><g
       id="g29"
       transform="translate(11.895881,-41.847865)"><path
         fill-rule="evenodd"
         clip-rule="evenodd"
         d="m 218.1304,148.85326 h 29.89133 c 3.30168,0 5.97827,-2.67659 5.97827,-5.97826 v -29.89134 h 59.78267 c 6.60359,0 11.95653,5.35312 11.95653,11.95654 v 119.56533 c 0,6.6036 -5.35294,11.95654 -11.95653,11.95654 h -83.69574 c -6.60341,0 -11.95653,-5.35294 -11.95653,-11.95654 z m 2.04104,-11.95653 c 3.60232,-10.19193 11.6801,-18.2697 21.87203,-21.87202 v 21.87202 z m 27.85029,41.84787 h 47.82614 c 3.3018,0 5.97827,-2.67647 5.97827,-5.97827 0,-3.30174 -2.67647,-5.97827 -5.97827,-5.97827 h -47.82614 c -3.30167,0 -5.97826,2.67653 -5.97826,5.97827 0,3.3018 2.67659,5.97827 5.97826,5.97827 z m 0,23.91307 h 47.82614 c 3.3018,0 5.97827,-2.67647 5.97827,-5.97827 0,-3.3018 -2.67647,-5.97827 -5.97827,-5.97827 h -47.82614 c -3.30167,0 -5.97826,2.67647 -5.97826,5.97827 0,3.3018 2.67659,5.97827 5.97826,5.97827 z m 0,23.91306 h 47.82614 c 3.3018,0 5.97827,-2.67647 5.97827,-5.97826 0,-3.3018 -2.67647,-5.97827 -5.97827,-5.97827 h -47.82614 c -3.30167,0 -5.97826,2.67647 -5.97826,5.97827 0,3.30179 2.67659,5.97826 5.97826,5.97826 z"
         fill="#758ca3"
         id="path27"
         style="fill:#e4b969;fill-opacity:1;stroke-width:5.97827" /></g><g
       id="g28"
       transform="translate(40.61255,-61.34729)"><path
         fill-rule="evenodd"
         clip-rule="evenodd"
         d="m 61.016953,138.35289 h 29.89133 c 3.30168,0 5.97827,-2.67659 5.97827,-5.97826 v -29.89134 h 59.782667 c 6.60359,0 11.95652,5.35312 11.95652,11.95654 v 119.56533 c 0,6.60359 -5.35293,11.95653 -11.95652,11.95653 H 72.973483 c -6.60341,0 -11.95653,-5.35294 -11.95653,-11.95653 z m 2.04104,-11.95653 c 3.60232,-10.19193 11.6801,-18.2697 21.87203,-21.87202 v 21.87202 z m 27.85029,41.84787 h 19.780307 c 3.3018,0 5.97827,-2.67647 5.97827,-5.97827 0,-3.30174 -2.67647,-5.97827 -5.97827,-5.97827 H 90.908283 c -3.30167,0 -5.97826,2.67653 -5.97826,5.97827 0,3.3018 2.67659,5.97827 5.97826,5.97827 z m 0,23.91306 h 47.826137 c 3.3018,0 5.97827,-2.67646 5.97827,-5.97826 0,-3.3018 -2.67647,-5.97827 -5.97827,-5.97827 H 90.908283 c -3.30167,0 -5.97826,2.67647 -5.97826,5.97827 0,3.3018 2.67659,5.97826 5.97826,5.97826 z m 0,23.91307 h 47.826137 c 3.3018,0 5.97827,-2.67647 5.97827,-5.97827 0,-3.30179 -2.67647,-5.97826 -5.97827,-5.97826 H 90.908283 c -3.30167,0 -5.97826,2.67647 -5.97826,5.97826 0,3.3018 2.67659,5.97827 5.97826,5.97827 z"
         fill="#758ca3"
         id="path27-9"
         style="fill:#e4b969;fill-opacity:1;stroke-width:5.97827"
         sodipodi:nodetypes="csscsssssscccccsssssssssssssssssssss" /><path
         d="m 118.99461,140.29081 c 0,-3.52634 2.8614,-6.38176 6.38169,-6.38176 h 2.23258 c -2.37996,-2.62971 -3.84225,-6.10795 -3.84225,-9.94119 0,-8.19309 6.64655,-14.83664 14.83965,-14.83664 8.1991,0 14.83961,6.64051 14.83961,14.83964 0,3.82723 -1.46229,7.30848 -3.8483,9.93819 h 2.13332 c 3.52631,0 6.3817,2.85542 6.3817,6.38176 v 10.76566 c 0,3.37594 -2.63272,6.10797 -5.94245,6.3365 h -27.2331 c -3.30974,-0.22853 -5.94245,-2.96056 -5.94245,-6.3365 z"
         style="fill:#373737;fill-opacity:1;stroke-width:3.00885"
         id="path1-7"
         sodipodi:nodetypes="sscssscsssccss" /></g></g></svg>
